<svg width="226" height="53" viewBox="0 0 226 53" fill="none" xmlns="http://www.w3.org/2000/svg">
<path fill-rule="evenodd" clip-rule="evenodd" d="M220.201 7.62677C221.524 10.223 221.524 13.6216 221.524 20.4188V32.5555C221.524 38.3203 221.524 41.6405 220.717 44.0998C220.882 45.7767 221.189 47.0553 221.759 48.1742C222.453 49.5366 223.412 50.7362 224.57 51.708V51.9744H219.715C217.89 51.9744 216.167 51.5431 214.64 50.7768C212.075 51.9742 208.68 51.9742 202.105 51.9742H20.282C13.4848 51.9742 10.0862 51.9742 7.49005 50.6514C5.20637 49.4878 3.34969 47.6311 2.1861 45.3475C0.863278 42.7513 0.863278 39.3527 0.863278 32.5555V20.4188C0.863278 13.6216 0.863278 10.223 2.1861 7.62677C3.34969 5.3431 5.20637 3.48641 7.49005 2.32282C10.0862 1 13.4848 1 20.282 1H202.105C208.902 1 212.301 1 214.897 2.32282C217.181 3.48641 219.037 5.3431 220.201 7.62677Z" fill="#050505"/>
<path fill-rule="evenodd" clip-rule="evenodd" d="M220.201 7.62677C221.524 10.223 221.524 13.6216 221.524 20.4188V32.5555C221.524 38.3203 221.524 41.6405 220.717 44.0998C220.882 45.7767 221.189 47.0553 221.759 48.1742C222.453 49.5366 223.412 50.7362 224.57 51.708V51.9744H219.715C217.89 51.9744 216.167 51.5431 214.64 50.7768C212.075 51.9742 208.68 51.9742 202.105 51.9742H20.282C13.4848 51.9742 10.0862 51.9742 7.49005 50.6514C5.20637 49.4878 3.34969 47.6311 2.1861 45.3475C0.863278 42.7513 0.863278 39.3527 0.863278 32.5555V20.4188C0.863278 13.6216 0.863278 10.223 2.1861 7.62677C3.34969 5.3431 5.20637 3.48641 7.49005 2.32282C10.0862 1 13.4848 1 20.282 1H202.105C208.902 1 212.301 1 214.897 2.32282C217.181 3.48641 219.037 5.3431 220.201 7.62677Z" fill="url(#paint0_linear_127_105)" fill-opacity="0.33"/>
<path d="M220.201 7.62677L219.755 7.85376V7.85376L220.201 7.62677ZM220.717 44.0998L220.242 43.944L220.209 44.044L220.219 44.1489L220.717 44.0998ZM221.759 48.1742L221.313 48.4012L221.313 48.4012L221.759 48.1742ZM224.57 51.708H225.07V51.4749L224.891 51.3251L224.57 51.708ZM224.57 51.9744V52.4744H225.07V51.9744H224.57ZM214.64 50.7768L214.864 50.33L214.648 50.2213L214.428 50.3238L214.64 50.7768ZM7.49005 50.6514L7.26305 51.0969H7.26305L7.49005 50.6514ZM2.1861 45.3475L2.63161 45.1205L2.1861 45.3475ZM2.1861 7.62677L1.7406 7.39977H1.7406L2.1861 7.62677ZM7.49005 2.32282L7.71704 2.76833L7.49005 2.32282ZM214.897 2.32282L214.67 2.76833V2.76833L214.897 2.32282ZM222.024 20.4188C222.024 17.0284 222.024 14.4556 221.857 12.4067C221.689 10.3519 221.35 8.7801 220.646 7.39977L219.755 7.85376C220.375 9.06962 220.697 10.4952 220.86 12.4881C221.023 14.4868 221.024 17.0119 221.024 20.4188H222.024ZM222.024 32.5555V20.4188H221.024V32.5555H222.024ZM221.192 44.2557C221.615 42.965 221.82 41.4696 221.922 39.5943C222.024 37.7196 222.024 35.4328 222.024 32.5555H221.024C221.024 35.4429 221.024 37.6986 220.924 39.5401C220.824 41.3809 220.625 42.7753 220.242 43.944L221.192 44.2557ZM222.204 47.9472C221.673 46.9044 221.376 45.6937 221.214 44.0508L220.219 44.1489C220.388 45.8597 220.705 47.2062 221.313 48.4012L222.204 47.9472ZM224.891 51.3251C223.784 50.3961 222.868 49.2495 222.204 47.9472L221.313 48.4012C222.038 49.8237 223.039 51.0762 224.248 52.091L224.891 51.3251ZM225.07 51.9744V51.708H224.07V51.9744H225.07ZM219.715 52.4744H224.57V51.4744H219.715V52.4744ZM214.416 51.2237C216.01 52.0241 217.811 52.4744 219.715 52.4744V51.4744C217.97 51.4744 216.323 51.0621 214.864 50.33L214.416 51.2237ZM202.105 52.4742C205.385 52.4742 207.9 52.4746 209.914 52.3232C211.932 52.1714 213.491 51.8652 214.852 51.2299L214.428 50.3238C213.225 50.8859 211.803 51.1783 209.839 51.326C207.871 51.4739 205.4 51.4742 202.105 51.4742V52.4742ZM20.282 52.4742H202.105V51.4742H20.282V52.4742ZM7.26305 51.0969C8.64338 51.8002 10.2152 52.1394 12.2699 52.3072C14.3189 52.4746 16.8917 52.4742 20.282 52.4742V51.4742C16.8752 51.4742 14.3501 51.4739 12.3514 51.3106C10.3585 51.1477 8.9329 50.8254 7.71704 50.2059L7.26305 51.0969ZM1.7406 45.5745C2.95212 47.9522 4.8853 49.8854 7.26305 51.0969L7.71704 50.2059C5.52745 49.0903 3.74726 47.3101 2.63161 45.1205L1.7406 45.5745ZM0.363278 32.5555C0.363278 35.9458 0.362889 38.5187 0.530291 40.5676C0.698171 42.6223 1.03729 44.1941 1.7406 45.5745L2.63161 45.1205C2.01209 43.9046 1.6898 42.479 1.52697 40.4861C1.36367 38.4874 1.36328 35.9623 1.36328 32.5555H0.363278ZM0.363278 20.4188V32.5555H1.36328V20.4188H0.363278ZM1.7406 7.39977C1.03729 8.7801 0.698171 10.3519 0.530291 12.4067C0.362889 14.4556 0.363278 17.0284 0.363278 20.4188H1.36328C1.36328 17.0119 1.36367 14.4868 1.52697 12.4881C1.6898 10.4952 2.01209 9.06962 2.63161 7.85376L1.7406 7.39977ZM7.26305 1.87732C4.8853 3.08885 2.95212 5.02202 1.7406 7.39977L2.63161 7.85376C3.74726 5.66417 5.52745 3.88398 7.71704 2.76833L7.26305 1.87732ZM20.282 0.5C16.8917 0.5 14.3189 0.499611 12.2699 0.667014C10.2152 0.834893 8.64338 1.17401 7.26305 1.87732L7.71704 2.76833C8.9329 2.14882 10.3585 1.82652 12.3514 1.66369C14.3501 1.50039 16.8752 1.5 20.282 1.5V0.5ZM202.105 0.5H20.282V1.5H202.105V0.5ZM215.124 1.87732C213.744 1.17401 212.172 0.834893 210.117 0.667014C208.068 0.499611 205.495 0.5 202.105 0.5V1.5C205.512 1.5 208.037 1.50039 210.036 1.66369C212.029 1.82652 213.454 2.14882 214.67 2.76833L215.124 1.87732ZM220.646 7.39977C219.435 5.02202 217.502 3.08885 215.124 1.87732L214.67 2.76833C216.86 3.88398 218.64 5.66417 219.755 7.85376L220.646 7.39977Z" fill="#1BDBDB"/>
<defs>
<linearGradient id="paint0_linear_127_105" x1="111.194" y1="1" x2="111.194" y2="51.9742" gradientUnits="userSpaceOnUse">
<stop stop-color="#1DEBED"/>
<stop offset="0.916667" stop-color="#1DEBED" stop-opacity="0"/>
</linearGradient>
</defs>
</svg>
