<svg width="268" height="269" viewBox="0 0 268 269" fill="none" xmlns="http://www.w3.org/2000/svg">
<path d="M224.402 136.969C224.402 186.445 184.294 226.553 134.817 226.553C85.3409 226.553 45.2324 186.445 45.2324 136.969C45.2324 87.4923 85.3409 47.3838 134.817 47.3838C184.294 47.3838 224.402 87.4923 224.402 136.969Z" fill="#050505"/>
<path opacity="0.11" d="M184.466 76.0006C219.864 106.579 223.771 160.064 193.192 195.462C162.613 230.859 109.129 234.766 73.7311 204.187C38.3333 173.609 34.4266 120.124 65.0052 84.7265C95.5839 49.3287 149.068 45.422 184.466 76.0006Z" fill="url(#paint0_linear_403_38)"/>
<path d="M50.0547 212.707C29.8203 190.82 17.8763 161.269 19.1281 129.359C21.6442 65.2201 75.6979 15.2472 139.837 17.7633C203.976 20.2794 253.949 74.3331 251.433 138.472C248.917 202.611 194.863 252.584 130.724 250.068C98.814 248.816 70.2891 234.594 50.0547 212.707ZM216.195 59.1097C197.187 38.5494 170.233 25.028 139.918 23.8388C79.2892 21.4604 28.2201 68.674 25.8417 129.303C23.4634 189.932 70.6769 241.001 131.306 243.379C191.935 245.758 243.004 198.544 245.382 137.915C246.572 107.601 235.203 79.6699 216.195 59.1097Z" fill="#1BDBDB"/>
<path d="M103.337 229.485L100.94 228.687L107.928 207.717L110.324 208.516L103.337 229.485ZM116.518 232.879L120.11 211.111L122.307 211.51L118.714 233.278L116.518 232.879ZM88.9577 223.696L86.9606 222.697L97.1433 203.125L99.1405 204.124L88.9577 223.696ZM132.094 234.076L132.092 212.108L134.089 212.108L134.091 234.075L132.094 234.076ZM75.7765 215.309L74.1787 214.111L87.3572 196.536L88.955 197.734L75.7765 215.309ZM147.671 233.275L144.474 211.907L146.87 211.707L150.068 233.075L147.671 233.275ZM63.7933 205.326L61.9958 203.728L77.3713 188.549L79.1688 190.147L63.7933 205.326ZM163.048 230.078L156.655 209.31L158.852 208.711L165.245 229.479L163.048 230.078ZM53.4075 193.544L52.0094 191.747L69.5819 178.964L70.98 180.761L53.4075 193.544ZM177.626 224.285L167.838 204.716L169.835 203.717L179.622 223.287L177.626 224.285ZM45.2183 180.165L44.2196 178.168L63.7894 168.381L64.7881 170.378L45.2183 180.165ZM191.005 216.096L178.222 198.524L180.019 197.126L192.802 214.698L191.005 216.096ZM39.0261 165.787L38.4267 163.591L59.1951 157.198L59.7944 159.395L39.0261 165.787ZM203.186 206.509L188.007 191.134L189.604 189.336L204.783 204.712L203.186 206.509ZM35.4298 150.61L35.2299 148.214L56.5977 145.016L56.7977 147.413L35.4298 150.61ZM213.769 194.726L196.193 181.547L197.391 179.949L214.967 193.128L213.769 194.726ZM34.0303 134.834L34.03 132.837L55.9973 132.835L55.9975 134.832L34.0303 134.834ZM222.155 181.544L202.583 171.362L203.581 169.365L223.153 179.547L222.155 181.544ZM35.2269 119.257L35.626 117.06L57.394 120.653L56.9948 122.849L35.2269 119.257ZM228.344 166.966L207.374 159.978L208.173 157.582L229.142 164.569L228.344 166.966ZM59.5897 111.067L38.6202 104.079L39.4188 101.683L60.3882 108.67L59.5897 111.067ZM210.568 148.395L210.968 146.198L232.736 149.791L232.336 151.987L210.568 148.395ZM64.1816 99.2837L44.6097 89.1009L45.608 87.1038L65.1799 97.2865L64.1816 99.2837ZM211.965 136.213L211.965 134.216L233.932 134.214L233.932 136.211L211.965 136.213ZM70.571 89.0982L52.9958 75.9197L54.1938 74.3219L71.769 87.5005L70.571 89.0982ZM211.365 124.031L211.165 121.635L232.533 118.437L232.732 120.834L211.365 124.031ZM78.3584 79.7114L63.1794 64.3359L64.7768 62.5384L79.9558 77.9139L78.3584 79.7114ZM87.7435 71.5226L74.9607 53.9501L76.7579 52.5521L89.5407 70.1245L87.7435 71.5226ZM208.767 111.85L208.168 109.653L228.936 103.26L229.536 105.457L208.767 111.85ZM204.173 100.667L203.174 98.67L222.744 88.8826L223.743 90.8795L204.173 100.667ZM98.1274 65.3308L88.3399 45.7609L90.3368 44.7622L100.124 64.332L98.1274 65.3308ZM197.781 89.8837L196.383 88.0865L213.956 75.3037L215.354 77.1009L197.781 89.8837ZM109.11 60.337L102.718 39.5687L104.915 38.9693L111.307 59.7377L109.11 60.337ZM190.192 80.6982L188.394 79.1008L203.77 63.9218L205.567 65.5192L190.192 80.6982ZM121.092 57.3403L117.895 35.9724L120.291 35.7725L123.489 57.1403L121.092 57.3403ZM181.005 72.3116L179.407 71.1136L192.585 53.5384L194.183 54.7365L181.005 72.3116ZM133.673 56.5402L133.671 34.5729L135.668 34.5727L135.67 56.5399L133.673 56.5402ZM170.819 65.9222L168.822 64.9239L179.005 45.352L181.002 46.3504L170.819 65.9222ZM145.656 57.5374L149.248 35.7695L151.445 36.1687L147.852 57.9366L145.656 57.5374ZM159.835 60.9309L157.438 60.1323L164.426 39.1628L166.822 39.9614L159.835 60.9309Z" fill="#1BDBDB"/>
<path d="M152.569 225.046L150.802 216.217C165.016 213.302 178.435 206.591 189.294 196.966L195.298 203.676C183.204 214.36 168.372 221.777 152.569 225.046ZM64.8968 195.832C54.2127 183.738 46.7951 168.906 43.5268 153.103L52.3555 151.336C55.2705 165.55 61.9814 178.969 71.6059 189.828L64.8968 195.832ZM78.4799 72.0516L72.4759 65.3424C84.5702 54.6584 99.4016 47.2407 115.205 43.9724L116.971 52.8009C102.846 55.451 89.4265 62.1622 78.4799 72.0516ZM215.683 117.77C212.768 103.556 206.057 90.1371 196.433 79.2787L203.142 73.2745C213.826 85.3687 221.244 100.2 224.512 116.003L215.683 117.77Z" fill="#1BDBDB"/>
<path d="M191.419 76.2756C223.891 108.235 224.306 160.468 192.346 192.939C160.386 225.411 108.154 225.827 75.6823 193.867C43.2104 161.907 42.7952 109.675 74.755 77.2029C106.715 44.731 158.947 44.3159 191.419 76.2756ZM78.2187 191.29C109.267 221.849 159.21 221.452 189.769 190.403C220.328 159.354 219.931 109.412 188.882 78.8526C157.834 48.2937 107.891 48.6906 77.332 79.7393C46.773 110.788 47.17 160.731 78.2187 191.29Z" fill="#1BDBDB"/>
<path d="M57.3502 205.963C38.0355 185.071 28.2251 158.16 29.3392 129.76C31.6299 71.3648 81.0535 25.365 139.768 27.6683C168.168 28.7824 194.215 40.9898 213.542 61.5627C232.857 82.4546 242.667 109.365 241.553 137.765C240.439 166.165 228.232 192.212 207.659 211.54C187.086 230.867 159.856 240.665 131.456 239.551C103.056 238.436 76.6773 226.536 57.3502 205.963ZM211.221 63.7087C192.519 43.48 167.098 31.6167 139.655 30.5402C82.8554 28.312 34.7709 72.7664 32.5427 129.566C31.4662 157.009 41.3016 183.281 60.0031 203.51C78.7046 223.739 104.126 235.602 131.569 236.679C159.011 237.755 185.284 227.92 205.513 209.218C225.741 190.517 237.605 165.095 238.681 137.653C239.439 110.198 229.922 83.9374 211.221 63.7087Z" fill="#38797F"/>
<defs>
<linearGradient id="paint0_linear_403_38" x1="65.0052" y1="84.7265" x2="193.192" y2="195.462" gradientUnits="userSpaceOnUse">
<stop offset="0.492107" stop-color="#1C1C1C"/>
<stop offset="0.497998" stop-color="white" stop-opacity="0.502002"/>
<stop offset="1" stop-color="white" stop-opacity="0"/>
</linearGradient>
</defs>
</svg>
