<svg width="245" height="245" viewBox="0 0 245 245" fill="none" xmlns="http://www.w3.org/2000/svg">
<path d="M244.623 52.217L233.446 58.6039C222.269 39.1238 205.983 23.1565 186.502 11.6601L192.889 0.483032C214.605 13.2568 232.169 31.1402 244.623 52.217ZM244.623 193.048C232.169 214.444 214.605 232.328 193.209 244.463L186.822 233.286C206.302 222.109 222.269 205.822 233.766 186.342L244.623 193.048ZM58.7644 11.9796C39.2844 23.1567 23.3171 39.4431 11.8206 58.9232L0.643555 52.5363C13.098 31.1401 30.662 13.2569 52.0582 1.12176L58.7644 11.9796ZM58.7644 233.605L52.3775 244.782C30.9814 232.328 13.098 214.764 0.962919 193.368L12.14 186.981C23.3171 206.141 39.6037 222.109 58.7644 233.605Z" fill="#D1F1F1"/>
</svg>
